<svg width="50" height="40" viewBox="0 0 50 40" fill="none" xmlns="http://www.w3.org/2000/svg">
<path d="M50 2.85714V40H0V2.85714H6.66667V0H16.6667C18.1944 0 19.6615 0.200893 21.0677 0.602679C22.474 1.00446 23.7847 1.60714 25 2.41071C26.1979 1.60714 27.5 1.00446 28.9062 0.602679C30.3125 0.200893 31.7882 0 33.3333 0H43.3333V2.85714H50ZM33.3333 2.85714C32.1181 2.85714 30.9375 3.02827 29.7917 3.37054C28.6458 3.7128 27.6042 4.22619 26.6667 4.91071V32.9018C27.691 32.4107 28.7674 32.0461 29.8958 31.808C31.0243 31.5699 32.1701 31.4435 33.3333 31.4286H40V2.85714H33.3333ZM10 31.4286H16.6667C17.8299 31.4286 18.9757 31.5476 20.1042 31.7857C21.2326 32.0238 22.309 32.3958 23.3333 32.9018V4.91071C22.3958 4.24107 21.3542 3.73512 20.2083 3.39286C19.0625 3.0506 17.8819 2.87202 16.6667 2.85714H10V31.4286ZM3.33333 37.1429H24.3229C23.7674 36.6815 23.2031 36.2798 22.6302 35.9375C22.0573 35.5952 21.467 35.2976 20.8594 35.0446C20.2517 34.7917 19.6007 34.6057 18.9062 34.4866C18.2118 34.3676 17.4653 34.3006 16.6667 34.2857H6.66667V5.71429H3.33333V37.1429ZM46.6667 5.71429H43.3333V34.2857H33.3333C32.5347 34.2857 31.7969 34.3452 31.1198 34.4643C30.4427 34.5833 29.7917 34.7693 29.1667 35.0223C28.5417 35.2753 27.9427 35.5729 27.3698 35.9152C26.7969 36.2574 26.2326 36.6667 25.6771 37.1429H46.6667V5.71429Z" fill="#2B3C4D"/>
</svg>
