<svg width="44" height="44" viewBox="0 0 44 44" fill="none" xmlns="http://www.w3.org/2000/svg">
<path d="M33.9961 12.2569C35.3222 12.2569 36.5939 11.7166 37.5316 10.7548C38.4693 9.79307 38.9961 8.48862 38.9961 7.12847C38.9961 5.76831 38.4693 4.46387 37.5316 3.50209C36.5939 2.54032 35.3222 2 33.9961 2C32.67 2 31.3982 2.54032 30.4606 3.50209C29.5229 4.46387 28.9961 5.76831 28.9961 7.12847C28.9961 8.48862 29.5229 9.79307 30.4606 10.7548C31.3982 11.7166 32.67 12.2569 33.9961 12.2569Z" stroke="#2B3C4D" stroke-width="4"/>
<path d="M9.996 14.0725L17.999 11.2292L28.996 16.6131L17.999 25.0207L28.996 32.4467L22.004 42.0001M33.316 19.0707L35.998 20.5672L41.996 14.7864M14.845 29.2271L11.875 33.2396L2 38.9219" stroke="#2B3C4D" stroke-width="4" stroke-linecap="round" stroke-linejoin="round"/>
</svg>
